<svg width="257" height="257" viewBox="0 0 257 257" fill="none" xmlns="http://www.w3.org/2000/svg">
<rect x="128.01" y="73.3257" width="78.0254" height="78.0254" transform="rotate(45 128.01 73.3257)" fill="#C7EBFF"/>
<circle cx="128.01" cy="128.501" r="31.2102" transform="rotate(45 128.01 128.501)" fill="white"/>
<path d="M27.5959 83.2595C12.3605 68.0241 12.3605 43.3226 27.5959 28.0872V28.0872C42.8313 12.8518 67.5328 12.8518 82.7682 28.0872L128.01 73.3285L72.8372 128.501L27.5959 83.2595Z" fill="#31CB6D"/>
<path d="M228.424 173.738C243.659 188.973 243.659 213.674 228.424 228.91V228.91C213.188 244.145 188.487 244.145 173.251 228.91L128.01 183.669L183.182 128.496L228.424 173.738Z" fill="#00CBA4"/>
<path d="M82.7814 228.913C67.546 244.148 42.8446 244.148 27.6092 228.913V228.913C12.3738 213.677 12.3738 188.976 27.6092 173.741L72.8505 128.499L128.023 183.672L82.7814 228.913Z" fill="#0099FA"/>
<path d="M173.242 28.0861C188.477 12.8507 213.179 12.8507 228.414 28.0861V28.0861C243.65 43.3215 243.65 68.023 228.414 83.2584L183.173 128.5L128.001 73.3275L173.242 28.0861Z" fill="#246FFE"/>
</svg>
